<svg width="21" height="20" viewBox="0 0 21 20" fill="none" xmlns="http://www.w3.org/2000/svg">
<path d="M9.08885 13.2491C8.72013 12.9558 8.48404 12.5053 8.48404 12C8.48404 11.1163 9.20612 10.4 10.0968 10.4C10.9876 10.4 11.7096 11.1163 11.7096 12C11.7096 12.5053 11.4736 12.9558 11.1048 13.2491V16H9.08885V13.2491Z" fill="#CCCCCC"/>
<path fill-rule="evenodd" clip-rule="evenodd" d="M2.88982 6.4C3.02613 5.28177 3.45477 3.90864 4.37604 2.71392C5.56176 1.17627 7.51548 0 10.5 0C13.4846 0 15.4383 1.17627 16.624 2.71392C17.5453 3.90864 17.974 5.28177 18.1103 6.4H20.58V20H0.420044V6.4H2.88982ZM4.51739 6.4C4.64812 5.55926 4.98846 4.55306 5.657 3.68608C6.52761 2.55707 8.00109 1.6 10.5 1.6C12.999 1.6 14.4725 2.55707 15.3431 3.68608C16.0116 4.55306 16.352 5.55926 16.4827 6.4H4.51739ZM2.03284 8V18.4H18.9672V8H2.03284Z" fill="#CCCCCC"/>
</svg>
