<svg width="21" height="20" viewBox="0 0 21 20" fill="none" xmlns="http://www.w3.org/2000/svg">
<circle cx="10.4252" cy="9.92522" r="9.5" fill="#AAA9A9"/>
<path fill-rule="evenodd" clip-rule="evenodd" d="M3.42192 9.16967C3.8348 9.03892 4.28102 9.25029 4.41976 9.64188L4.42119 9.64581C4.42294 9.65053 4.42621 9.65928 4.43108 9.67179C4.44081 9.69682 4.45686 9.73679 4.47969 9.78958C4.52539 9.89529 4.59787 10.0516 4.70061 10.2415C4.90688 10.6228 5.2304 11.1311 5.69657 11.6372C6.6197 12.6395 8.09443 13.631 10.3819 13.631C12.6694 13.631 14.1441 12.6395 15.0672 11.6372C15.5334 11.1311 15.8569 10.6228 16.0632 10.2415C16.1659 10.0516 16.2384 9.89529 16.2841 9.78958C16.3069 9.73679 16.323 9.69682 16.3327 9.67179C16.3376 9.65928 16.3409 9.65053 16.3426 9.64581L16.3435 9.64337C16.3437 9.64286 16.3439 9.64234 16.3441 9.64183C16.4828 9.25027 16.929 9.03893 17.3419 9.16967C17.7555 9.30065 17.979 9.72538 17.8412 10.1183L17.0922 9.88116C17.8412 10.1183 17.841 10.1187 17.8409 10.1191L17.8406 10.1199L17.8399 10.1219L17.8381 10.1271L17.8325 10.1423C17.8279 10.1546 17.8217 10.1711 17.8138 10.1916C17.7979 10.2325 17.775 10.2892 17.7446 10.3594C17.6839 10.4998 17.593 10.6951 17.4675 10.9271C17.2174 11.3894 16.8255 12.0061 16.2555 12.6249C15.1063 13.8726 13.2259 15.131 10.3819 15.131C7.53793 15.131 5.65749 13.8726 4.50832 12.6249C3.93833 12.0061 3.54641 11.3894 3.29628 10.9271C3.17082 10.6951 3.07986 10.4998 3.01917 10.3594C2.9888 10.2892 2.96592 10.2325 2.95002 10.1916C2.94206 10.1711 2.93585 10.1546 2.93131 10.1423L2.92574 10.1271L2.92388 10.1219L2.92317 10.1199L2.92288 10.1191C2.92275 10.1187 2.92262 10.1183 3.67156 9.88116L2.92262 10.1183C2.78475 9.72538 3.00829 9.30065 3.42192 9.16967Z" fill="white"/>
</svg>
