<svg width="21" height="20" viewBox="0 0 21 20" fill="none" xmlns="http://www.w3.org/2000/svg">
<circle cx="10" cy="10" r="9.5" fill="#AAA9A9"/>
<path fill-rule="evenodd" clip-rule="evenodd" d="M9.99996 4.73894C6.95792 4.73894 4.85765 6.4159 3.4331 7.55334C3.21085 7.7308 3.00505 7.89512 2.81468 8.03789L1.89227 8.7297L2.70757 9.545L2.97284 9.81027C3.42175 10.7317 4.23053 12.0045 5.32774 13.0851C6.4846 14.2245 8.07894 15.2611 9.99996 15.2611C11.921 15.2611 13.5153 14.2245 14.6722 13.0851C15.7694 12.0045 16.5782 10.7317 17.0271 9.81027L17.2924 9.545L18.1077 8.7297L17.1852 8.03789C16.9949 7.89512 16.7891 7.7308 16.5668 7.55334C15.1423 6.4159 13.042 4.73894 9.99996 4.73894ZM6.73111 11.6602C5.85276 10.7951 5.18617 9.76218 4.81276 9.01911C6.23933 7.89711 7.74166 6.73894 9.99996 6.73894C12.2583 6.73894 13.7606 7.89711 15.1872 9.01911C14.8138 9.76218 14.1472 10.7951 13.2688 11.6602C12.2951 12.6191 11.1779 13.2611 9.99996 13.2611C8.82203 13.2611 7.70478 12.6191 6.73111 11.6602ZM9.99998 12.7116C11.4975 12.7116 12.7116 11.4976 12.7116 10C12.7116 8.50243 11.4975 7.28841 9.99998 7.28841C8.50241 7.28841 7.28839 8.50243 7.28839 10C7.28839 11.4976 8.50241 12.7116 9.99998 12.7116Z" fill="white"/>
</svg>
